<svg width="222" height="34" viewBox="0 0 222 34" fill="none" xmlns="http://www.w3.org/2000/svg">
<mask id="path-1-outside-1_1_391" maskUnits="userSpaceOnUse" x="0" y="0" width="222" height="34" fill="black">
<rect fill="white" width="222" height="34"/>
<path d="M1 7.19355V1H27.5631V7.19355H18.0335V32.5532H10.5449V7.19355H1Z"/>
<path d="M38.8728 33C36.4073 33 34.2794 32.5121 32.489 31.5364C30.709 30.5503 29.3381 29.1483 28.3764 27.3303C27.425 25.502 26.9493 23.3296 26.9493 20.8132C26.9493 18.3686 27.4301 16.2322 28.3918 14.4039C29.3534 12.5654 30.709 11.1377 32.4584 10.1208C34.2077 9.09372 36.2692 8.58016 38.6426 8.58016C40.3204 8.58016 41.8549 8.84208 43.2463 9.36591C44.6376 9.88974 45.8397 10.6652 46.8525 11.6923C47.8653 12.7195 48.653 13.988 49.2157 15.4978C49.7784 16.9974 50.0597 18.7179 50.0597 20.6591V22.5388H29.5734V18.1632H43.0775C43.0672 17.3621 42.878 16.6482 42.5097 16.0217C42.1414 15.3951 41.635 14.9072 40.9905 14.558C40.3562 14.1985 39.6247 14.0188 38.7961 14.0188C37.9572 14.0188 37.2052 14.2088 36.5403 14.5888C35.8753 14.9586 35.3484 15.467 34.9597 16.1141C34.5709 16.7509 34.3663 17.475 34.3459 18.2865V22.739C34.3459 23.7045 34.5351 24.5519 34.9136 25.2812C35.2922 26.0002 35.8293 26.5599 36.5249 26.9605C37.2206 27.3611 38.0492 27.5614 39.0109 27.5614C39.6759 27.5614 40.2795 27.4689 40.8217 27.2841C41.3639 27.0992 41.8294 26.827 42.2181 26.4675C42.6069 26.108 42.8984 25.6663 43.0928 25.1425L49.983 25.3428C49.6965 26.8938 49.0673 28.2444 48.0955 29.3948C47.1338 30.5349 45.8704 31.4234 44.3051 32.0602C42.7399 32.6867 40.9291 33 38.8728 33Z"/>
<path d="M64.895 33C62.409 33 60.276 32.4864 58.4959 31.4593C56.726 30.4322 55.3654 29.0045 54.414 27.1762C53.4626 25.3377 52.9868 23.2115 52.9868 20.7978C52.9868 18.3738 53.4626 16.2476 54.414 14.4194C55.3756 12.5808 56.7414 11.148 58.5112 10.1208C60.2913 9.09372 62.4141 8.58016 64.8796 8.58016C67.0587 8.58016 68.9564 8.97561 70.5728 9.76649C72.1995 10.5574 73.468 11.6769 74.3785 13.1252C75.2993 14.5632 75.7852 16.2528 75.8364 18.194H68.8234C68.6802 16.982 68.271 16.0319 67.5958 15.3438C66.9308 14.6556 66.0612 14.3115 64.9871 14.3115C64.1175 14.3115 63.3553 14.558 62.7006 15.051C62.0458 15.5338 61.5343 16.2528 61.166 17.208C60.808 18.1529 60.6289 19.3239 60.6289 20.7208C60.6289 22.1176 60.808 23.2988 61.166 24.2643C61.5343 25.2195 62.0458 25.9437 62.7006 26.4367C63.3553 26.9194 64.1175 27.1608 64.9871 27.1608C65.6827 27.1608 66.2965 27.0119 66.8285 26.714C67.3707 26.4161 67.8157 25.9796 68.1636 25.4044C68.5114 24.819 68.7314 24.1103 68.8234 23.2783H75.8364C75.7647 25.2298 75.2788 26.9348 74.3785 28.3934C73.4885 29.8519 72.2353 30.9868 70.6189 31.7983C69.0127 32.5994 67.1047 33 64.895 33Z"/>
<path d="M87.1805 19.0568V32.5532H79.6766V1H86.935V13.233H87.1959C87.7279 11.7745 88.5975 10.6344 89.8046 9.81271C91.0221 8.99101 92.5106 8.58016 94.2702 8.58016C95.9275 8.58016 97.37 8.94993 98.5976 9.68946C99.8253 10.4187 100.777 11.451 101.452 12.7862C101.462 10.999 102.137 14.1215 101.452 12.7862L102.465 32.5532H94.9607V18.949C94.971 17.6342 94.6436 16.6071 93.9786 15.8676C93.3136 15.1281 92.3776 14.7583 91.1704 14.7583C90.3826 14.7583 89.687 14.9329 89.0834 15.2821C88.49 15.6211 88.0246 16.109 87.687 16.7458C87.3596 17.3826 87.1908 18.1529 87.1805 19.0568Z"/>
<path d="M112.489 32.5532L103.343 1H111.737L116.479 21.676H116.74L122.157 1H129.001L134.418 21.7222H134.679L139.436 1H147.815L138.684 32.5532H131.364L125.702 13.4179H125.456L119.794 32.5532H112.489Z"/>
<path d="M154.981 32.9538C153.477 32.9538 152.142 32.7021 150.976 32.1988C149.82 31.6853 148.904 30.9149 148.229 29.8878C147.564 28.8504 147.231 27.5511 147.231 25.9899C147.231 24.6752 147.462 23.5659 147.922 22.662C148.382 21.7581 149.017 21.0238 149.825 20.4588C150.633 19.8939 151.564 19.4677 152.618 19.1801C153.671 18.8822 154.797 18.6819 155.994 18.5792C157.334 18.4559 158.413 18.3276 159.232 18.194C160.05 18.0502 160.643 17.8499 161.012 17.5932C161.39 17.3261 161.58 16.9512 161.58 16.4685V16.3914C161.58 15.6005 161.308 14.9894 160.766 14.558C160.224 14.1266 159.493 13.9109 158.572 13.9109C157.579 13.9109 156.782 14.1266 156.178 14.558C155.574 14.9894 155.191 15.5851 155.027 16.3452L148.106 16.0987C148.311 14.6607 148.838 13.3768 149.687 12.247C150.546 11.1069 151.723 10.2133 153.216 9.5662C154.72 8.90884 156.526 8.58016 158.633 8.58016C160.137 8.58016 161.523 8.75991 162.792 9.1194C164.06 9.46862 165.165 9.98219 166.106 10.6601C167.048 11.3277 167.774 12.1494 168.286 13.1252C168.807 14.1009 169.068 15.2154 169.068 16.4685V32.5532H162.009V29.2561H161.825C161.406 30.0573 160.869 30.7352 160.214 31.2898C159.569 31.8445 158.807 32.2605 157.927 32.5378C157.058 32.8151 156.076 32.9538 154.981 32.9538ZM157.298 28.0236C158.106 28.0236 158.833 27.8593 159.477 27.5306C160.132 27.2019 160.654 26.75 161.042 26.1748C161.431 25.5893 161.626 24.9114 161.626 24.1411V21.8917C161.411 22.0047 161.15 22.1074 160.843 22.1998C160.546 22.2922 160.219 22.3796 159.861 22.4617C159.503 22.5439 159.134 22.6158 158.756 22.6774C158.377 22.739 158.014 22.7955 157.666 22.8469C156.961 22.9599 156.357 23.1345 155.856 23.3707C155.365 23.607 154.986 23.9151 154.72 24.2951C154.464 24.6649 154.336 25.1066 154.336 25.6201C154.336 26.4007 154.613 26.9965 155.165 27.4073C155.728 27.8182 156.439 28.0236 157.298 28.0236Z"/>
<path d="M195.677 8.8883L187.59 32.5532H178.997L170.925 8.8883H178.828L183.171 25.1887H183.416L187.774 8.8883H195.677Z"/>
<path d="M208.813 33C206.348 33 204.22 32.5121 202.429 31.5364C200.649 30.5503 199.278 29.1483 198.317 27.3303C197.365 25.502 196.89 23.3296 196.89 20.8132C196.89 18.3686 197.37 16.2322 198.332 14.4039C199.294 12.5654 200.649 11.1377 202.399 10.1208C204.148 9.09372 206.209 8.58016 208.583 8.58016C210.261 8.58016 211.795 8.84208 213.187 9.36591C214.578 9.88974 215.78 10.6652 216.793 11.6923C217.806 12.7195 218.593 13.988 219.156 15.4978C219.719 16.9974 220 18.7179 220 20.6591V22.5388H199.514V18.1632H213.018C213.008 17.3621 212.818 16.6482 212.45 16.0217C212.082 15.3951 211.575 14.9072 210.931 14.558C210.297 14.1985 209.565 14.0188 208.736 14.0188C207.897 14.0188 207.146 14.2088 206.481 14.5888C205.816 14.9586 205.289 15.467 204.9 16.1141C204.511 16.7509 204.307 17.475 204.286 18.2865V22.739C204.286 23.7045 204.475 24.5519 204.854 25.2812C205.232 26.0002 205.77 26.5599 206.465 26.9605C207.161 27.3611 207.99 27.5614 208.951 27.5614C209.616 27.5614 210.22 27.4689 210.762 27.2841C211.304 27.0992 211.77 26.827 212.158 26.4675C212.547 26.108 212.839 25.6663 213.033 25.1425L219.923 25.3428C219.637 26.8938 219.008 28.2444 218.036 29.3948C217.074 30.5349 215.811 31.4234 214.245 32.0602C212.68 32.6867 210.869 33 208.813 33Z"/>
</mask>
<path d="M1 7.19355V1H27.5631V7.19355H18.0335V32.5532H10.5449V7.19355H1Z" fill="white"/>
<path d="M38.8728 33C36.4073 33 34.2794 32.5121 32.489 31.5364C30.709 30.5503 29.3381 29.1483 28.3764 27.3303C27.425 25.502 26.9493 23.3296 26.9493 20.8132C26.9493 18.3686 27.4301 16.2322 28.3918 14.4039C29.3534 12.5654 30.709 11.1377 32.4584 10.1208C34.2077 9.09372 36.2692 8.58016 38.6426 8.58016C40.3204 8.58016 41.8549 8.84208 43.2463 9.36591C44.6376 9.88974 45.8397 10.6652 46.8525 11.6923C47.8653 12.7195 48.653 13.988 49.2157 15.4978C49.7784 16.9974 50.0597 18.7179 50.0597 20.6591V22.5388H29.5734V18.1632H43.0775C43.0672 17.3621 42.878 16.6482 42.5097 16.0217C42.1414 15.3951 41.635 14.9072 40.9905 14.558C40.3562 14.1985 39.6247 14.0188 38.7961 14.0188C37.9572 14.0188 37.2052 14.2088 36.5403 14.5888C35.8753 14.9586 35.3484 15.467 34.9597 16.1141C34.5709 16.7509 34.3663 17.475 34.3459 18.2865V22.739C34.3459 23.7045 34.5351 24.5519 34.9136 25.2812C35.2922 26.0002 35.8293 26.5599 36.5249 26.9605C37.2206 27.3611 38.0492 27.5614 39.0109 27.5614C39.6759 27.5614 40.2795 27.4689 40.8217 27.2841C41.3639 27.0992 41.8294 26.827 42.2181 26.4675C42.6069 26.108 42.8984 25.6663 43.0928 25.1425L49.983 25.3428C49.6965 26.8938 49.0673 28.2444 48.0955 29.3948C47.1338 30.5349 45.8704 31.4234 44.3051 32.0602C42.7399 32.6867 40.9291 33 38.8728 33Z" fill="white"/>
<path d="M64.895 33C62.409 33 60.276 32.4864 58.4959 31.4593C56.726 30.4322 55.3654 29.0045 54.414 27.1762C53.4626 25.3377 52.9868 23.2115 52.9868 20.7978C52.9868 18.3738 53.4626 16.2476 54.414 14.4194C55.3756 12.5808 56.7414 11.148 58.5112 10.1208C60.2913 9.09372 62.4141 8.58016 64.8796 8.58016C67.0587 8.58016 68.9564 8.97561 70.5728 9.76649C72.1995 10.5574 73.468 11.6769 74.3785 13.1252C75.2993 14.5632 75.7852 16.2528 75.8364 18.194H68.8234C68.6802 16.982 68.271 16.0319 67.5958 15.3438C66.9308 14.6556 66.0612 14.3115 64.9871 14.3115C64.1175 14.3115 63.3553 14.558 62.7006 15.051C62.0458 15.5338 61.5343 16.2528 61.166 17.208C60.808 18.1529 60.6289 19.3239 60.6289 20.7208C60.6289 22.1176 60.808 23.2988 61.166 24.2643C61.5343 25.2195 62.0458 25.9437 62.7006 26.4367C63.3553 26.9194 64.1175 27.1608 64.9871 27.1608C65.6827 27.1608 66.2965 27.0119 66.8285 26.714C67.3707 26.4161 67.8157 25.9796 68.1636 25.4044C68.5114 24.819 68.7314 24.1103 68.8234 23.2783H75.8364C75.7647 25.2298 75.2788 26.9348 74.3785 28.3934C73.4885 29.8519 72.2353 30.9868 70.6189 31.7983C69.0127 32.5994 67.1047 33 64.895 33Z" fill="white"/>
<path d="M87.1805 19.0568V32.5532H79.6766V1H86.935V13.233H87.1959C87.7279 11.7745 88.5975 10.6344 89.8046 9.81271C91.0221 8.99101 92.5106 8.58016 94.2702 8.58016C95.9275 8.58016 97.37 8.94993 98.5976 9.68946C99.8253 10.4187 100.777 11.451 101.452 12.7862C101.462 10.999 102.137 14.1215 101.452 12.7862L102.465 32.5532H94.9607V18.949C94.971 17.6342 94.6436 16.6071 93.9786 15.8676C93.3136 15.1281 92.3776 14.7583 91.1704 14.7583C90.3826 14.7583 89.687 14.9329 89.0834 15.2821C88.49 15.6211 88.0246 16.109 87.687 16.7458C87.3596 17.3826 87.1908 18.1529 87.1805 19.0568Z" fill="white"/>
<path d="M112.489 32.5532L103.343 1H111.737L116.479 21.676H116.74L122.157 1H129.001L134.418 21.7222H134.679L139.436 1H147.815L138.684 32.5532H131.364L125.702 13.4179H125.456L119.794 32.5532H112.489Z" fill="url(#paint0_linear_1_391)"/>
<path d="M154.981 32.9538C153.477 32.9538 152.142 32.7021 150.976 32.1988C149.82 31.6853 148.904 30.9149 148.229 29.8878C147.564 28.8504 147.231 27.5511 147.231 25.9899C147.231 24.6752 147.462 23.5659 147.922 22.662C148.382 21.7581 149.017 21.0238 149.825 20.4588C150.633 19.8939 151.564 19.4677 152.618 19.1801C153.671 18.8822 154.797 18.6819 155.994 18.5792C157.334 18.4559 158.413 18.3276 159.232 18.194C160.05 18.0502 160.643 17.8499 161.012 17.5932C161.39 17.3261 161.58 16.9512 161.58 16.4685V16.3914C161.58 15.6005 161.308 14.9894 160.766 14.558C160.224 14.1266 159.493 13.9109 158.572 13.9109C157.579 13.9109 156.782 14.1266 156.178 14.558C155.574 14.9894 155.191 15.5851 155.027 16.3452L148.106 16.0987C148.311 14.6607 148.838 13.3768 149.687 12.247C150.546 11.1069 151.723 10.2133 153.216 9.5662C154.72 8.90884 156.526 8.58016 158.633 8.58016C160.137 8.58016 161.523 8.75991 162.792 9.1194C164.06 9.46862 165.165 9.98219 166.106 10.6601C167.048 11.3277 167.774 12.1494 168.286 13.1252C168.807 14.1009 169.068 15.2154 169.068 16.4685V32.5532H162.009V29.2561H161.825C161.406 30.0573 160.869 30.7352 160.214 31.2898C159.569 31.8445 158.807 32.2605 157.927 32.5378C157.058 32.8151 156.076 32.9538 154.981 32.9538ZM157.298 28.0236C158.106 28.0236 158.833 27.8593 159.477 27.5306C160.132 27.2019 160.654 26.75 161.042 26.1748C161.431 25.5893 161.626 24.9114 161.626 24.1411V21.8917C161.411 22.0047 161.15 22.1074 160.843 22.1998C160.546 22.2922 160.219 22.3796 159.861 22.4617C159.503 22.5439 159.134 22.6158 158.756 22.6774C158.377 22.739 158.014 22.7955 157.666 22.8469C156.961 22.9599 156.357 23.1345 155.856 23.3707C155.365 23.607 154.986 23.9151 154.72 24.2951C154.464 24.6649 154.336 25.1066 154.336 25.6201C154.336 26.4007 154.613 26.9965 155.165 27.4073C155.728 27.8182 156.439 28.0236 157.298 28.0236Z" fill="url(#paint1_linear_1_391)"/>
<path d="M195.677 8.8883L187.59 32.5532H178.997L170.925 8.8883H178.828L183.171 25.1887H183.416L187.774 8.8883H195.677Z" fill="url(#paint2_linear_1_391)"/>
<path d="M208.813 33C206.348 33 204.22 32.5121 202.429 31.5364C200.649 30.5503 199.278 29.1483 198.317 27.3303C197.365 25.502 196.89 23.3296 196.89 20.8132C196.89 18.3686 197.37 16.2322 198.332 14.4039C199.294 12.5654 200.649 11.1377 202.399 10.1208C204.148 9.09372 206.209 8.58016 208.583 8.58016C210.261 8.58016 211.795 8.84208 213.187 9.36591C214.578 9.88974 215.78 10.6652 216.793 11.6923C217.806 12.7195 218.593 13.988 219.156 15.4978C219.719 16.9974 220 18.7179 220 20.6591V22.5388H199.514V18.1632H213.018C213.008 17.3621 212.818 16.6482 212.45 16.0217C212.082 15.3951 211.575 14.9072 210.931 14.558C210.297 14.1985 209.565 14.0188 208.736 14.0188C207.897 14.0188 207.146 14.2088 206.481 14.5888C205.816 14.9586 205.289 15.467 204.9 16.1141C204.511 16.7509 204.307 17.475 204.286 18.2865V22.739C204.286 23.7045 204.475 24.5519 204.854 25.2812C205.232 26.0002 205.77 26.5599 206.465 26.9605C207.161 27.3611 207.99 27.5614 208.951 27.5614C209.616 27.5614 210.22 27.4689 210.762 27.2841C211.304 27.0992 211.77 26.827 212.158 26.4675C212.547 26.108 212.839 25.6663 213.033 25.1425L219.923 25.3428C219.637 26.8938 219.008 28.2444 218.036 29.3948C217.074 30.5349 215.811 31.4234 214.245 32.0602C212.68 32.6867 210.869 33 208.813 33Z" fill="url(#paint3_linear_1_391)"/>
<path d="M1 7.19355H0V8.19355H1V7.19355ZM1 1V0H0V1H1ZM27.5631 1H28.5631V0H27.5631V1ZM27.5631 7.19355V8.19355H28.5631V7.19355H27.5631ZM18.0335 7.19355V6.19355H17.0335V7.19355H18.0335ZM18.0335 32.5532V33.5532H19.0335V32.5532H18.0335ZM10.5449 32.5532H9.54492V33.5532H10.5449V32.5532ZM10.5449 7.19355H11.5449V6.19355H10.5449V7.19355ZM32.489 31.5364L32.0045 32.4111L32.0105 32.4144L32.489 31.5364ZM28.3764 27.3303L27.4893 27.7919L27.4925 27.7979L28.3764 27.3303ZM28.3918 14.4039L29.2768 14.8695L29.2779 14.8674L28.3918 14.4039ZM32.4584 10.1208L32.9609 10.9854L32.9647 10.9832L32.4584 10.1208ZM43.2463 9.36591L43.5986 8.43004V8.43004L43.2463 9.36591ZM49.2157 15.4978L48.2786 15.847L48.2794 15.8491L49.2157 15.4978ZM50.0597 22.5388V23.5388H51.0597V22.5388H50.0597ZM29.5734 22.5388H28.5734V23.5388H29.5734V22.5388ZM29.5734 18.1632V17.1632H28.5734V18.1632H29.5734ZM43.0775 18.1632V19.1632H44.0903L44.0774 18.1504L43.0775 18.1632ZM40.9905 14.558L40.4974 15.428L40.5057 15.4327L40.5141 15.4372L40.9905 14.558ZM36.5403 14.5888L37.0263 15.4629L37.0365 15.457L36.5403 14.5888ZM34.9597 16.1141L35.8132 16.6352L35.8169 16.6291L34.9597 16.1141ZM34.3459 18.2865L33.3462 18.2613L33.3459 18.2739V18.2865H34.3459ZM34.9136 25.2812L34.0261 25.7419L34.0288 25.747L34.9136 25.2812ZM36.5249 26.9605L36.0259 27.8271V27.8271L36.5249 26.9605ZM40.8217 27.2841L41.1444 28.2306V28.2306L40.8217 27.2841ZM42.2181 26.4675L42.8971 27.2017V27.2017L42.2181 26.4675ZM43.0928 25.1425L43.1219 24.1429L42.4048 24.1221L42.1553 24.7946L43.0928 25.1425ZM49.983 25.3428L50.9663 25.5244L51.1782 24.3771L50.012 24.3432L49.983 25.3428ZM48.0955 29.3948L47.3316 28.7494L47.3311 28.7501L48.0955 29.3948ZM44.3051 32.0602L44.6767 32.9886L44.682 32.9865L44.3051 32.0602ZM58.4959 31.4593L57.994 32.3242L57.9961 32.3255L58.4959 31.4593ZM54.414 27.1762L53.5259 27.6358L53.5269 27.6378L54.414 27.1762ZM54.414 14.4194L53.5279 13.9559L53.5269 13.9577L54.414 14.4194ZM58.5112 10.1208L58.0115 9.25469L58.0093 9.25594L58.5112 10.1208ZM70.5728 9.76649L70.1333 10.6647L70.1356 10.6658L70.5728 9.76649ZM74.3785 13.1252L73.5319 13.6574L73.5364 13.6644L74.3785 13.1252ZM75.8364 18.194V19.194H76.8631L76.836 18.1677L75.8364 18.194ZM68.8234 18.194L67.8304 18.3114L67.9347 19.194H68.8234V18.194ZM67.5958 15.3438L66.8767 16.0387L66.882 16.0441L67.5958 15.3438ZM62.7006 15.051L63.294 15.856L63.3021 15.8499L62.7006 15.051ZM61.166 17.208L60.233 16.8482L60.2309 16.8537L61.166 17.208ZM61.166 24.2643L60.2283 24.6121L60.233 24.6241L61.166 24.2643ZM62.7006 26.4367L62.099 27.2356L62.1071 27.2416L62.7006 26.4367ZM66.8285 26.714L66.347 25.8375L66.34 25.8415L66.8285 26.714ZM68.1636 25.4044L69.0193 25.9219L69.0233 25.9152L68.1636 25.4044ZM68.8234 23.2783V22.2783H67.928L67.8295 23.1683L68.8234 23.2783ZM75.8364 23.2783L76.8357 23.315L76.8737 22.2783H75.8364V23.2783ZM74.3785 28.3934L73.5276 27.8681L73.5249 27.8724L74.3785 28.3934ZM70.6189 31.7983L71.0652 32.6931L71.0675 32.692L70.6189 31.7983ZM87.1805 19.0568L86.1805 19.0455V19.0568H87.1805ZM87.1805 32.5532V33.5532H88.1805V32.5532H87.1805ZM79.6766 32.5532H78.6766V33.5532H79.6766V32.5532ZM79.6766 1V0H78.6766V1H79.6766ZM86.935 1H87.935V0H86.935V1ZM86.935 13.233H85.935V14.233H86.935V13.233ZM87.1959 13.233V14.233H87.8956L88.1353 13.5757L87.1959 13.233ZM89.8046 9.81271L89.2452 8.98384L89.2419 8.98604L89.8046 9.81271ZM98.5976 9.68946L98.0816 10.5461L98.0869 10.5492L98.5976 9.68946ZM102.465 32.5532V33.5532H103.517L103.463 32.502L102.465 32.5532ZM94.9607 32.5532H93.9607V33.5532H94.9607V32.5532ZM94.9607 18.949L93.9607 18.9412V18.949H94.9607ZM93.9786 15.8676L93.235 16.5362V16.5362L93.9786 15.8676ZM89.0834 15.2821L89.5794 16.1505L89.5842 16.1477L89.0834 15.2821ZM87.687 16.7458L86.8034 16.2774L86.7976 16.2886L87.687 16.7458ZM112.489 32.5532L111.529 32.8316L111.738 33.5532H112.489V32.5532ZM103.343 1V0H102.012L102.383 1.2784L103.343 1ZM111.737 1L112.712 0.776466L112.534 0H111.737V1ZM116.479 21.676L115.504 21.8995L115.682 22.676H116.479V21.676ZM116.74 21.676V22.676H117.512L117.707 21.9294L116.74 21.676ZM122.157 1V0H121.385L121.19 0.74656L122.157 1ZM129.001 1L129.968 0.747089L129.773 0H129.001V1ZM134.418 21.7222L133.45 21.9751L133.646 22.7222H134.418V21.7222ZM134.679 21.7222V22.7222H135.475L135.653 21.9459L134.679 21.7222ZM139.436 1V0H138.639L138.461 0.776253L139.436 1ZM147.815 1L148.775 1.27797L149.145 0H147.815V1ZM138.684 32.5532V33.5532H139.436L139.645 32.8312L138.684 32.5532ZM131.364 32.5532L130.405 32.837L130.617 33.5532H131.364V32.5532ZM125.702 13.4179L126.661 13.1342L126.449 12.4179H125.702V13.4179ZM125.456 13.4179V12.4179H124.709L124.497 13.1342L125.456 13.4179ZM119.794 32.5532V33.5532H120.541L120.753 32.837L119.794 32.5532ZM150.976 32.1988L150.57 33.1128L150.58 33.117L150.976 32.1988ZM148.229 29.8878L147.387 30.4275L147.393 30.4371L148.229 29.8878ZM147.922 22.662L147.031 22.2082V22.2082L147.922 22.662ZM149.825 20.4588L150.398 21.2785V21.2785L149.825 20.4588ZM152.618 19.1801L152.881 20.1448L152.89 20.1424L152.618 19.1801ZM155.994 18.5792L156.079 19.5756L156.085 19.575L155.994 18.5792ZM159.232 18.194L159.393 19.1811L159.405 19.1789L159.232 18.194ZM161.012 17.5932L161.584 18.4135L161.588 18.4103L161.012 17.5932ZM160.766 14.558L161.389 13.7755V13.7755L160.766 14.558ZM156.178 14.558L155.596 13.7444V13.7444L156.178 14.558ZM155.027 16.3452L154.991 17.3446L155.828 17.3744L156.005 16.5557L155.027 16.3452ZM148.106 16.0987L147.116 15.9578L146.96 17.0585L148.071 17.0981L148.106 16.0987ZM149.687 12.247L148.888 11.6451L148.887 11.6462L149.687 12.247ZM153.216 9.5662L153.614 10.4838L153.617 10.4825L153.216 9.5662ZM162.792 9.1194L162.519 10.0815L162.526 10.0835L162.792 9.1194ZM166.106 10.6601L165.522 11.4715L165.528 11.4757L166.106 10.6601ZM168.286 13.1252L167.4 13.5895L167.404 13.5967L168.286 13.1252ZM169.068 32.5532V33.5532H170.068V32.5532H169.068ZM162.009 32.5532H161.009V33.5532H162.009V32.5532ZM162.009 29.2561H163.009V28.2561H162.009V29.2561ZM161.825 29.2561V28.2561H161.22L160.939 28.7923L161.825 29.2561ZM160.214 31.2898L159.567 30.5268L159.562 30.5319L160.214 31.2898ZM157.927 32.5378L157.627 31.584L157.623 31.5851L157.927 32.5378ZM159.477 27.5306L159.029 26.6368L159.023 26.6397L159.477 27.5306ZM161.042 26.1748L161.871 26.7348L161.876 26.7279L161.042 26.1748ZM161.626 21.8917H162.626V20.2359L161.16 21.0066L161.626 21.8917ZM160.843 22.1998L160.555 21.2423L160.546 21.2451L160.843 22.1998ZM158.756 22.6774L158.917 23.6644V23.6644L158.756 22.6774ZM157.666 22.8469L157.52 21.8575L157.508 21.8595L157.666 22.8469ZM155.856 23.3707L155.429 22.4661L155.422 22.4696L155.856 23.3707ZM154.72 24.2951L153.901 23.7217L153.898 23.7263L154.72 24.2951ZM155.165 27.4073L154.568 28.2098L154.575 28.2149L155.165 27.4073ZM195.677 8.8883L196.624 9.21167L197.076 7.8883H195.677V8.8883ZM187.59 32.5532V33.5532H188.305L188.536 32.8766L187.59 32.5532ZM178.997 32.5532L178.05 32.876L178.281 33.5532H178.997V32.5532ZM170.925 8.8883V7.8883H169.527L169.979 9.21112L170.925 8.8883ZM178.828 8.8883L179.794 8.63086L179.596 7.8883H178.828V8.8883ZM183.171 25.1887L182.204 25.4462L182.402 26.1887H183.171V25.1887ZM183.416 25.1887V26.1887H184.184L184.382 25.447L183.416 25.1887ZM187.774 8.8883V7.8883H187.007L186.808 8.63001L187.774 8.8883ZM202.429 31.5364L201.945 32.4111L201.951 32.4144L202.429 31.5364ZM198.317 27.3303L197.43 27.7919L197.433 27.7979L198.317 27.3303ZM198.332 14.4039L199.217 14.8695L199.218 14.8674L198.332 14.4039ZM202.399 10.1208L202.901 10.9854L202.905 10.9832L202.399 10.1208ZM213.187 9.36591L213.539 8.43004V8.43004L213.187 9.36591ZM219.156 15.4978L218.219 15.847L218.22 15.8491L219.156 15.4978ZM220 22.5388V23.5388H221V22.5388H220ZM199.514 22.5388H198.514V23.5388H199.514V22.5388ZM199.514 18.1632V17.1632H198.514V18.1632H199.514ZM213.018 18.1632V19.1632H214.031L214.018 18.1504L213.018 18.1632ZM210.931 14.558L210.438 15.428L210.446 15.4327L210.454 15.4372L210.931 14.558ZM206.481 14.5888L206.967 15.4629L206.977 15.457L206.481 14.5888ZM204.9 16.1141L205.754 16.6352L205.757 16.6291L204.9 16.1141ZM204.286 18.2865L203.286 18.2613L203.286 18.2739V18.2865H204.286ZM204.854 25.2812L203.966 25.7419L203.969 25.747L204.854 25.2812ZM206.465 26.9605L205.966 27.8271V27.8271L206.465 26.9605ZM210.762 27.2841L211.085 28.2306V28.2306L210.762 27.2841ZM212.158 26.4675L212.837 27.2017V27.2017L212.158 26.4675ZM213.033 25.1425L213.062 24.1429L212.345 24.1221L212.096 24.7946L213.033 25.1425ZM219.923 25.3428L220.907 25.5244L221.119 24.3771L219.952 24.3432L219.923 25.3428ZM218.036 29.3948L217.272 28.7494L217.271 28.7501L218.036 29.3948ZM214.245 32.0602L214.617 32.9886L214.622 32.9865L214.245 32.0602ZM1 7.19355H2V1H1H0V7.19355H1ZM1 1V2H27.5631V1V0H1V1ZM27.5631 1H26.5631V7.19355H27.5631H28.5631V1H27.5631ZM27.5631 7.19355V6.19355H18.0335V7.19355V8.19355H27.5631V7.19355ZM18.0335 7.19355H17.0335V32.5532H18.0335H19.0335V7.19355H18.0335ZM18.0335 32.5532V31.5532H10.5449V32.5532V33.5532H18.0335V32.5532ZM10.5449 32.5532H11.5449V7.19355H10.5449H9.54492V32.5532H10.5449ZM10.5449 7.19355V6.19355H1V7.19355V8.19355H10.5449V7.19355ZM38.8728 33V32C36.5397 32 34.5833 31.5389 32.9676 30.6583L32.489 31.5364L32.0105 32.4144C33.9754 33.4853 36.2748 34 38.8728 34V33ZM32.489 31.5364L32.9736 30.6616C31.3653 29.7707 30.1323 28.511 29.2604 26.8627L28.3764 27.3303L27.4925 27.7979C28.5439 29.7855 30.0527 31.3299 32.0045 32.4111L32.489 31.5364ZM28.3764 27.3303L29.2635 26.8687C28.4009 25.2111 27.9493 23.204 27.9493 20.8132H26.9493H25.9493C25.9493 23.4553 26.4491 25.7929 27.4894 27.7919L28.3764 27.3303ZM26.9493 20.8132H27.9493C27.9493 18.5012 28.4034 16.53 29.2768 14.8695L28.3918 14.4039L27.5068 13.9384C26.4569 15.9344 25.9493 18.2361 25.9493 20.8132H26.9493ZM28.3918 14.4039L29.2779 14.8674C30.1544 13.1916 31.379 11.9049 32.9609 10.9854L32.4584 10.1208L31.9558 9.25629C30.039 10.3705 28.5524 11.9392 27.5057 13.9405L28.3918 14.4039ZM32.4584 10.1208L32.9647 10.9832C34.5362 10.0605 36.4166 9.58016 38.6426 9.58016V8.58016V7.58016C36.1217 7.58016 33.8793 8.12693 31.952 9.2585L32.4584 10.1208ZM38.6426 8.58016V9.58016C40.2154 9.58016 41.6287 9.82545 42.8939 10.3018L43.2463 9.36591L43.5986 8.43004C42.0811 7.85872 40.4254 7.58016 38.6426 7.58016V8.58016ZM43.2463 9.36591L42.8939 10.3018C44.1541 10.7762 45.2323 11.4736 46.1404 12.3945L46.8525 11.6923L47.5645 10.9902C46.447 9.85688 45.1211 9.00325 43.5986 8.43004L43.2463 9.36591ZM46.8525 11.6923L46.1404 12.3945C47.0432 13.31 47.7594 14.4538 48.2786 15.847L49.2157 15.4978L50.1527 15.1486C49.5466 13.5221 48.6874 12.129 47.5645 10.9902L46.8525 11.6923ZM49.2157 15.4978L48.2794 15.8491C48.7921 17.2154 49.0597 18.8131 49.0597 20.6591H50.0597H51.0597C51.0597 18.6226 50.7646 16.7795 50.1519 15.1465L49.2157 15.4978ZM50.0597 20.6591H49.0597V22.5388H50.0597H51.0597V20.6591H50.0597ZM50.0597 22.5388V21.5388H29.5734V22.5388V23.5388H50.0597V22.5388ZM29.5734 22.5388H30.5734V18.1632H29.5734H28.5734V22.5388H29.5734ZM29.5734 18.1632V19.1632H43.0775V18.1632V17.1632H29.5734V18.1632ZM43.0775 18.1632L44.0774 18.1504C44.0652 17.1937 43.837 16.3063 43.3718 15.5149L42.5097 16.0217L41.6476 16.5284C41.919 16.9901 42.0693 17.5304 42.0776 18.176L43.0775 18.1632ZM42.5097 16.0217L43.3718 15.5149C42.9104 14.73 42.27 14.114 41.4669 13.6788L40.9905 14.558L40.5141 15.4372C41 15.7005 41.3724 16.0603 41.6476 16.5284L42.5097 16.0217ZM40.9905 14.558L41.4836 13.688C40.6793 13.2322 39.7736 13.0188 38.7961 13.0188V14.0188V15.0188C39.4759 15.0188 40.033 15.1648 40.4974 15.428L40.9905 14.558ZM38.7961 14.0188V13.0188C37.8002 13.0188 36.8743 13.2461 36.0441 13.7206L36.5403 14.5888L37.0365 15.457C37.5362 15.1714 38.1142 15.0188 38.7961 15.0188V14.0188ZM36.5403 14.5888L36.0543 13.7149C35.2376 14.169 34.5822 14.8007 34.1025 15.5991L34.9597 16.1141L35.8169 16.6291C36.1147 16.1333 36.513 15.7482 37.0262 15.4628L36.5403 14.5888ZM34.9597 16.1141L34.1062 15.5931C33.6181 16.3925 33.3707 17.2905 33.3462 18.2613L34.3459 18.2865L35.3455 18.3117C35.362 17.6596 35.5237 17.1094 35.8132 16.6352L34.9597 16.1141ZM34.3459 18.2865H33.3459V22.739H34.3459H35.3459V18.2865H34.3459ZM34.3459 22.739H33.3459C33.3459 23.8369 33.5618 24.8473 34.0261 25.7419L34.9136 25.2812L35.8012 24.8205C35.5085 24.2565 35.3459 23.5722 35.3459 22.739H34.3459ZM34.9136 25.2812L34.0288 25.747C34.4943 26.6312 35.1642 27.3309 36.0259 27.8271L36.5249 26.9605L37.0239 26.0939C36.4943 25.789 36.09 25.3691 35.7985 24.8153L34.9136 25.2812ZM36.5249 26.9605L36.0259 27.8271C36.9009 28.3309 37.9088 28.5614 39.0109 28.5614V27.5614V26.5614C38.1897 26.5614 37.5403 26.3913 37.0239 26.0939L36.5249 26.9605ZM39.0109 27.5614V28.5614C39.7684 28.5614 40.4831 28.456 41.1444 28.2306L40.8217 27.2841L40.4989 26.3376C40.0758 26.4818 39.5834 26.5614 39.0109 26.5614V27.5614ZM40.8217 27.2841L41.1444 28.2306C41.8079 28.0043 42.3975 27.6636 42.8971 27.2017L42.2181 26.4675L41.5392 25.7333C41.2612 25.9904 40.9199 26.194 40.4989 26.3376L40.8217 27.2841ZM42.2181 26.4675L42.8971 27.2017C43.4075 26.7296 43.7844 26.1532 44.0303 25.4904L43.0928 25.1425L42.1553 24.7946C42.0125 25.1795 41.8062 25.4864 41.5392 25.7333L42.2181 26.4675ZM43.0928 25.1425L43.0638 26.1421L49.9539 26.3424L49.983 25.3428L50.012 24.3432L43.1219 24.1429L43.0928 25.1425ZM49.983 25.3428L48.9996 25.1612C48.7432 26.5495 48.1858 27.7383 47.3316 28.7494L48.0955 29.3948L48.8593 30.0402C49.9489 28.7505 50.6498 27.238 50.9663 25.5244L49.983 25.3428ZM48.0955 29.3948L47.3311 28.7501C46.4871 29.7507 45.3636 30.5499 43.9283 31.1339L44.3051 32.0602L44.682 32.9865C46.3771 32.2968 47.7805 31.3191 48.8599 30.0395L48.0955 29.3948ZM44.3051 32.0602L43.9335 31.1318C42.5093 31.7019 40.829 32 38.8728 32V33V34C41.0292 34 42.9705 33.6716 44.6767 32.9886L44.3051 32.0602ZM64.895 33V32C62.5477 32 60.5949 31.5159 58.9957 30.5932L58.4959 31.4593L57.9961 32.3255C59.9571 33.457 62.2703 34 64.895 34V33ZM58.4959 31.4593L58.9978 30.5944C57.3933 29.6632 56.1656 28.3759 55.3011 26.7146L54.414 27.1762L53.5269 27.6378C54.5652 29.6331 56.0588 31.2012 57.994 32.3242L58.4959 31.4593ZM54.414 27.1762L55.3021 26.7166C54.4355 25.042 53.9868 23.0782 53.9868 20.7978H52.9868H51.9868C51.9868 23.3449 52.4896 25.6334 53.5259 27.6358L54.414 27.1762ZM52.9868 20.7978H53.9868C53.9868 18.5062 54.4359 16.5436 55.3011 14.881L54.414 14.4194L53.5269 13.9577C52.4893 15.9517 51.9868 18.2413 51.9868 20.7978H52.9868ZM54.414 14.4194L55.3001 14.8828C56.1755 13.2092 57.4091 11.9166 59.0132 10.9857L58.5112 10.1208L58.0093 9.25594C56.0737 10.3793 54.5758 11.9524 53.5279 13.9559L54.414 14.4194ZM58.5112 10.1208L59.011 10.987C60.6114 10.0636 62.5545 9.58016 64.8796 9.58016V8.58016V7.58016C62.2737 7.58016 59.9713 8.12388 58.0115 9.25469L58.5112 10.1208ZM64.8796 8.58016V9.58016C66.938 9.58016 68.6796 9.95345 70.1333 10.6647L70.5728 9.76649L71.0123 8.86825C69.2333 7.99776 67.1794 7.58016 64.8796 7.58016V8.58016ZM70.5728 9.76649L70.1356 10.6658C71.6042 11.3799 72.7267 12.3766 73.5319 13.6574L74.3785 13.1252L75.2251 12.5929C74.2094 10.9773 72.7947 9.73486 71.0101 8.86716L70.5728 9.76649ZM74.3785 13.1252L73.5364 13.6644C74.3459 14.9288 74.7897 16.4357 74.8367 18.2204L75.8364 18.194L76.836 18.1677C76.7807 16.0698 76.2526 14.1975 75.2207 12.5859L74.3785 13.1252ZM75.8364 18.194V17.194H68.8234V18.194V19.194H75.8364V18.194ZM68.8234 18.194L69.8165 18.0767C69.6543 16.7041 69.1771 15.5276 68.3096 14.6434L67.5958 15.3438L66.882 16.0441C67.3649 16.5363 67.7061 17.26 67.8304 18.3114L68.8234 18.194ZM67.5958 15.3438L68.3149 14.6489C67.4376 13.7409 66.2959 13.3115 64.9871 13.3115V14.3115V15.3115C65.8266 15.3115 66.4241 15.5702 66.8767 16.0386L67.5958 15.3438ZM64.9871 14.3115V13.3115C63.9146 13.3115 62.9381 13.6204 62.099 14.2522L62.7006 15.051L63.3021 15.8499C63.7725 15.4957 64.3204 15.3115 64.9871 15.3115V14.3115ZM62.7006 15.051L62.1071 14.2462C61.264 14.8678 60.6522 15.761 60.233 16.8482L61.166 17.208L62.0991 17.5677C62.4165 16.7445 62.8277 16.1997 63.294 15.8559L62.7006 15.051ZM61.166 17.208L60.2309 16.8537C59.817 17.9461 59.6289 19.2458 59.6289 20.7208H60.6289H61.6289C61.6289 19.4019 61.799 18.3598 62.1011 17.5623L61.166 17.208ZM60.6289 20.7208H59.6289C59.6289 22.1968 59.8173 23.5034 60.2284 24.612L61.166 24.2643L62.1036 23.9166C61.7986 23.0943 61.6289 22.0385 61.6289 20.7208H60.6289ZM61.166 24.2643L60.233 24.6241C60.6519 25.7105 61.2618 26.6051 62.099 27.2355L62.7006 26.4367L63.3021 25.6378C62.8299 25.2823 62.4168 24.7286 62.0991 23.9046L61.166 24.2643ZM62.7006 26.4367L62.1071 27.2416C62.946 27.86 63.9195 28.1608 64.9871 28.1608V27.1608V26.1608C64.3154 26.1608 63.7647 25.9788 63.294 25.6318L62.7006 26.4367ZM64.9871 27.1608V28.1608C65.8293 28.1608 66.6159 27.9792 67.3171 27.5865L66.8285 26.714L66.34 25.8415C65.9772 26.0446 65.5361 26.1608 64.9871 26.1608V27.1608ZM66.8285 26.714L67.31 27.5905C68.0195 27.2007 68.5886 26.6341 69.0193 25.9219L68.1636 25.4044L67.3079 24.887C67.0429 25.3251 66.7219 25.6316 66.347 25.8376L66.8285 26.714ZM68.1636 25.4044L69.0233 25.9152C69.4586 25.1825 69.7131 24.3302 69.8174 23.3883L68.8234 23.2783L67.8295 23.1683C67.7496 23.8903 67.5642 24.4554 67.3039 24.8937L68.1636 25.4044ZM68.8234 23.2783V24.2783H75.8364V23.2783V22.2783H68.8234V23.2783ZM75.8364 23.2783L74.837 23.2416C74.7709 25.0447 74.3249 26.5764 73.5276 27.8681L74.3785 28.3934L75.2295 28.9186C76.2327 27.2933 76.7586 25.415 76.8357 23.315L75.8364 23.2783ZM74.3785 28.3934L73.5249 27.8724C72.7381 29.1618 71.6297 30.1719 70.1702 30.9046L70.6189 31.7983L71.0675 32.692C72.8409 31.8018 74.2388 30.542 75.2321 28.9143L74.3785 28.3934ZM70.6189 31.7983L70.1725 30.9034C68.7333 31.6213 66.985 32 64.895 32V33V34C67.2245 34 69.2921 33.5776 71.0652 32.6931L70.6189 31.7983ZM87.1805 19.0568H86.1805V32.5532H87.1805H88.1805V19.0568H87.1805ZM87.1805 32.5532V31.5532H79.6766V32.5532V33.5532H87.1805V32.5532ZM79.6766 32.5532H80.6766V1H79.6766H78.6766V32.5532H79.6766ZM79.6766 1V2H86.935V1V0H79.6766V1ZM86.935 1H85.935V13.233H86.935H87.935V1H86.935ZM86.935 13.233V14.233H87.1959V13.233V12.233H86.935V13.233ZM87.1959 13.233L88.1353 13.5757C88.6003 12.3008 89.3446 11.3355 90.3673 10.6394L89.8046 9.81271L89.2419 8.98604C87.8503 9.93328 86.8554 11.2482 86.2564 12.8904L87.1959 13.233ZM89.8046 9.81271L90.3641 10.6416C91.3858 9.95194 92.6698 9.58016 94.2702 9.58016V8.58016V7.58016C92.3513 7.58016 90.6583 8.03009 89.2452 8.98384L89.8046 9.81271ZM94.2702 8.58016V9.58016C95.7746 9.58016 97.0328 9.91422 98.0816 10.546L98.5976 9.68946L99.1136 8.83287C97.7072 7.98564 96.0804 7.58016 94.2702 7.58016V8.58016ZM98.5976 9.68946L98.0869 10.5492C99.1431 11.1766 99.9658 12.0634 100.56 13.2375L101.452 12.7862L102.344 12.335C101.588 10.8386 100.507 9.66084 99.1083 8.82971L98.5976 9.68946ZM101.452 12.7862L100.562 13.2429C100.614 13.3445 100.668 13.4406 100.724 13.5271C100.774 13.6059 100.849 13.7134 100.951 13.8126C101.003 13.8631 101.085 13.9346 101.198 13.9969C101.31 14.0587 101.497 14.1354 101.736 14.1285C101.858 14.125 101.981 14.0999 102.099 14.0511C102.217 14.0027 102.314 13.9371 102.393 13.8671C102.544 13.7326 102.622 13.5841 102.662 13.4913C102.704 13.3942 102.724 13.307 102.736 13.2465C102.747 13.1832 102.753 13.1258 102.756 13.0791C102.761 12.9871 102.758 12.9004 102.753 12.8293C102.743 12.6861 102.719 12.5375 102.69 12.4054C102.662 12.2756 102.622 12.1276 102.569 11.9913C102.544 11.926 102.504 11.8318 102.444 11.735C102.413 11.6862 102.365 11.6156 102.295 11.5426C102.23 11.4751 102.103 11.3595 101.908 11.2853C101.805 11.2461 101.681 11.2179 101.541 11.2181C101.399 11.2183 101.263 11.2479 101.139 11.3009C100.899 11.4037 100.759 11.5701 100.689 11.6724C100.617 11.778 100.576 11.8776 100.554 11.942C100.53 12.0108 100.514 12.0747 100.503 12.127C100.482 12.2301 100.471 12.3365 100.464 12.4359C100.456 12.5389 100.453 12.6539 100.452 12.7805L101.452 12.7862L102.452 12.792C102.452 12.6952 102.455 12.6251 102.459 12.5768C102.462 12.525 102.466 12.5139 102.463 12.5288C102.461 12.5369 102.455 12.564 102.442 12.6027C102.43 12.637 102.4 12.7132 102.34 12.8016C102.282 12.8866 102.154 13.042 101.927 13.1394C101.809 13.1896 101.679 13.2179 101.544 13.2181C101.411 13.2183 101.293 13.1913 101.197 13.1547C101.016 13.0857 100.902 12.9802 100.852 12.9273C100.796 12.8689 100.761 12.8173 100.745 12.7915C100.728 12.7629 100.717 12.7412 100.712 12.7313C100.71 12.7256 100.708 12.7214 100.707 12.7188C100.705 12.7162 100.705 12.7148 100.705 12.7146C100.705 12.7143 100.706 12.7174 100.708 12.724C100.71 12.7304 100.713 12.7391 100.716 12.7499C100.722 12.7718 100.729 12.7985 100.735 12.8281C100.749 12.8911 100.756 12.9448 100.758 12.9743C100.76 12.9895 100.758 12.9817 100.76 12.9568C100.76 12.9436 100.763 12.9167 100.769 12.8803C100.776 12.8468 100.79 12.783 100.823 12.7052C100.854 12.6316 100.923 12.4982 101.062 12.3741C101.135 12.3093 101.226 12.2478 101.337 12.2022C101.448 12.1562 101.565 12.1326 101.679 12.1293C101.903 12.1229 102.072 12.1947 102.164 12.2459C102.258 12.2974 102.319 12.3525 102.347 12.38C102.402 12.4333 102.421 12.4692 102.406 12.4462C102.396 12.4308 102.375 12.3949 102.342 12.3296L101.452 12.7862ZM101.452 12.7862L100.453 12.8374L101.466 32.6044L102.465 32.5532L103.463 32.502L102.451 12.7351L101.452 12.7862ZM102.465 32.5532V31.5532H94.9607V32.5532V33.5532H102.465V32.5532ZM94.9607 32.5532H95.9607V18.949H94.9607H93.9607V32.5532H94.9607ZM94.9607 18.949L95.9607 18.9567C95.9722 17.4746 95.6019 16.1772 94.7222 15.199L93.9786 15.8676L93.235 16.5362C93.6853 17.037 93.9697 17.7939 93.9608 18.9412L94.9607 18.949ZM93.9786 15.8676L94.7222 15.199C93.8276 14.2041 92.5954 13.7583 91.1704 13.7583V14.7583V15.7583C92.1597 15.7583 92.7996 16.052 93.235 16.5362L93.9786 15.8676ZM91.1704 14.7583V13.7583C90.23 13.7583 89.3573 13.9683 88.5826 14.4166L89.0834 15.2821L89.5842 16.1477C90.0166 15.8975 90.5352 15.7583 91.1704 15.7583V14.7583ZM89.0834 15.2821L88.5874 14.4138C87.8204 14.852 87.2246 15.4829 86.8034 16.2774L87.687 16.7458L88.5705 17.2142C88.8245 16.7351 89.1597 16.3902 89.5794 16.1505L89.0834 15.2821ZM87.687 16.7458L86.7976 16.2886C86.3831 17.0948 86.1921 18.0261 86.1806 19.0455L87.1805 19.0568L88.1805 19.0681C88.1894 18.2798 88.336 17.6704 88.5763 17.203L87.687 16.7458ZM112.489 32.5532L113.45 32.2748L104.304 0.721601L103.343 1L102.383 1.2784L111.529 32.8316L112.489 32.5532ZM103.343 1V2H111.737V1V0H103.343V1ZM111.737 1L110.763 1.22353L115.504 21.8995L116.479 21.676L117.454 21.4524L112.712 0.776466L111.737 1ZM116.479 21.676V22.676H116.74V21.676V20.676H116.479V21.676ZM116.74 21.676L117.707 21.9294L123.124 1.25344L122.157 1L121.19 0.74656L115.773 21.4225L116.74 21.676ZM122.157 1V2H129.001V1V0H122.157V1ZM129.001 1L128.033 1.25291L133.45 21.9751L134.418 21.7222L135.385 21.4693L129.968 0.747089L129.001 1ZM134.418 21.7222V22.7222H134.679V21.7222V20.7222H134.418V21.7222ZM134.679 21.7222L135.653 21.9459L140.411 1.22375L139.436 1L138.461 0.776253L133.704 21.4984L134.679 21.7222ZM139.436 1V2H147.815V1V0H139.436V1ZM147.815 1L146.854 0.722032L137.723 32.2752L138.684 32.5532L139.645 32.8312L148.775 1.27797L147.815 1ZM138.684 32.5532V31.5532H131.364V32.5532V33.5532H138.684V32.5532ZM131.364 32.5532L132.323 32.2694L126.661 13.1342L125.702 13.4179L124.743 13.7017L130.405 32.837L131.364 32.5532ZM125.702 13.4179V12.4179H125.456V13.4179V14.4179H125.702V13.4179ZM125.456 13.4179L124.497 13.1342L118.835 32.2694L119.794 32.5532L120.753 32.837L126.415 13.7017L125.456 13.4179ZM119.794 32.5532V31.5532H112.489V32.5532V33.5532H119.794V32.5532ZM154.981 32.9538V31.9538C153.589 31.9538 152.392 31.721 151.372 31.2807L150.976 32.1988L150.58 33.117C151.892 33.6833 153.366 33.9538 154.981 33.9538V32.9538ZM150.976 32.1988L151.382 31.285C150.396 30.8468 149.631 30.2006 149.065 29.3385L148.229 29.8878L147.393 30.4371C148.177 31.6293 149.244 32.5237 150.57 33.1127L150.976 32.1988ZM148.229 29.8878L149.071 29.3482C148.533 28.5098 148.231 27.4106 148.231 25.9899H147.231H146.231C146.231 27.6917 146.594 29.1911 147.387 30.4275L148.229 29.8878ZM147.231 25.9899H148.231C148.231 24.7878 148.442 23.8438 148.813 23.1159L147.922 22.662L147.031 22.2082C146.481 23.288 146.231 24.5626 146.231 25.9899H147.231ZM147.922 22.662L148.813 23.1159C149.201 22.3538 149.728 21.7466 150.398 21.2785L149.825 20.4588L149.252 19.6392C148.305 20.3009 147.564 21.1625 147.031 22.2082L147.922 22.662ZM149.825 20.4588L150.398 21.2785C151.102 20.786 151.926 20.4054 152.881 20.1448L152.618 19.1801L152.354 18.2154C151.202 18.5299 150.164 19.0018 149.252 19.6392L149.825 20.4588ZM152.618 19.1801L152.89 20.1424C153.877 19.8633 154.939 19.6734 156.079 19.5755L155.994 18.5792L155.908 17.5829C154.654 17.6905 153.466 17.9011 152.346 18.2178L152.618 19.1801ZM155.994 18.5792L156.085 19.575C157.436 19.4507 158.542 19.3198 159.393 19.181L159.232 18.194L159.071 17.2071C158.285 17.3353 157.231 17.4611 155.902 17.5834L155.994 18.5792ZM159.232 18.194L159.405 19.1789C160.265 19.0278 161.033 18.7972 161.584 18.4135L161.012 17.5932L160.44 16.7729C160.254 16.9027 159.835 17.0726 159.059 17.2091L159.232 18.194ZM161.012 17.5932L161.588 18.4103C162.245 17.9467 162.58 17.26 162.58 16.4685H161.58H160.58C160.58 16.6424 160.535 16.7055 160.435 16.7761L161.012 17.5932ZM161.58 16.4685H162.58V16.3914H161.58H160.58V16.4685H161.58ZM161.58 16.3914H162.58C162.58 15.3445 162.205 14.425 161.389 13.7755L160.766 14.558L160.144 15.3406C160.412 15.5539 160.58 15.8566 160.58 16.3914H161.58ZM160.766 14.558L161.389 13.7755C160.619 13.163 159.644 12.9109 158.572 12.9109V13.9109V14.9109C159.341 14.9109 159.829 15.0902 160.144 15.3406L160.766 14.558ZM158.572 13.9109V12.9109C157.44 12.9109 156.419 13.1569 155.596 13.7444L156.178 14.558L156.759 15.3716C157.144 15.0964 157.719 14.9109 158.572 14.9109V13.9109ZM156.178 14.558L155.596 13.7444C154.78 14.328 154.263 15.1441 154.049 16.1347L155.027 16.3452L156.005 16.5557C156.119 16.0262 156.369 15.6508 156.759 15.3716L156.178 14.558ZM155.027 16.3452L155.063 15.3458L148.142 15.0993L148.106 16.0987L148.071 17.0981L154.991 17.3446L155.027 16.3452ZM148.106 16.0987L149.096 16.2396C149.278 14.9637 149.741 13.839 150.486 12.8478L149.687 12.247L148.887 11.6462C147.934 12.9147 147.344 14.3578 147.116 15.9578L148.106 16.0987ZM149.687 12.247L150.485 12.8489C151.227 11.8653 152.256 11.0719 153.614 10.4838L153.216 9.5662L152.819 8.64861C151.189 9.35468 149.866 10.3484 148.888 11.6451L149.687 12.247ZM153.216 9.5662L153.617 10.4825C154.964 9.89364 156.626 9.58016 158.633 9.58016V8.58016V7.58016C156.426 7.58016 154.476 7.92405 152.816 8.64991L153.216 9.5662ZM158.633 8.58016V9.58016C160.058 9.58016 161.351 9.7504 162.519 10.0815L162.792 9.1194L163.065 8.15729C161.696 7.76942 160.217 7.58016 158.633 7.58016V8.58016ZM162.792 9.1194L162.526 10.0835C163.696 10.4054 164.689 10.8717 165.522 11.4715L166.106 10.6601L166.691 9.84865C165.641 9.09263 164.425 8.53184 163.057 8.15527L162.792 9.1194ZM166.106 10.6601L165.528 11.4757C166.347 12.0566 166.965 12.7601 167.4 13.5895L168.286 13.1252L169.171 12.6609C168.583 11.5388 167.749 10.5989 166.685 9.84445L166.106 10.6601ZM168.286 13.1252L167.404 13.5967C167.838 14.4091 168.068 15.3578 168.068 16.4685H169.068H170.068C170.068 15.0729 169.776 13.7928 169.167 12.6537L168.286 13.1252ZM169.068 16.4685H168.068V32.5532H169.068H170.068V16.4685H169.068ZM169.068 32.5532V31.5532H162.009V32.5532V33.5532H169.068V32.5532ZM162.009 32.5532H163.009V29.2561H162.009H161.009V32.5532H162.009ZM162.009 29.2561V28.2561H161.825V29.2561V30.2561H162.009V29.2561ZM161.825 29.2561L160.939 28.7923C160.576 29.4855 160.119 30.06 159.567 30.5268L160.214 31.2898L160.86 32.0529C161.619 31.4104 162.235 30.6291 162.711 29.72L161.825 29.2561ZM160.214 31.2898L159.562 30.5319C159.028 30.9908 158.388 31.344 157.627 31.5841L157.927 32.5378L158.228 33.4915C159.226 33.177 160.11 32.6981 160.866 32.0478L160.214 31.2898ZM157.927 32.5378L157.623 31.5851C156.869 31.8255 155.992 31.9538 154.981 31.9538V32.9538V33.9538C156.159 33.9538 157.246 33.8047 158.231 33.4905L157.927 32.5378ZM157.298 28.0236V29.0236C158.246 29.0236 159.131 28.8299 159.932 28.4214L159.477 27.5306L159.023 26.6397C158.535 26.8886 157.967 27.0236 157.298 27.0236V28.0236ZM159.477 27.5306L159.926 28.4243C160.725 28.0231 161.381 27.4598 161.871 26.7347L161.042 26.1748L160.214 25.6148C159.926 26.0401 159.539 26.3807 159.029 26.6369L159.477 27.5306ZM161.042 26.1748L161.876 26.7279C162.384 25.9628 162.626 25.0885 162.626 24.1411H161.626H160.626C160.626 24.7343 160.479 25.2158 160.209 25.6216L161.042 26.1748ZM161.626 24.1411H162.626V21.8917H161.626H160.626V24.1411H161.626ZM161.626 21.8917L161.16 21.0066C161.016 21.0821 160.818 21.1628 160.555 21.2423L160.843 22.1998L161.131 23.1573C161.481 23.0519 161.805 22.9272 162.091 22.7767L161.626 21.8917ZM160.843 22.1998L160.546 21.2451C160.277 21.3287 159.975 21.4096 159.637 21.4871L159.861 22.4617L160.085 23.4364C160.463 23.3495 160.816 23.2558 161.14 23.1545L160.843 22.1998ZM159.861 22.4617L159.637 21.4871C159.301 21.5642 158.954 21.6321 158.595 21.6904L158.756 22.6774L158.917 23.6644C159.315 23.5995 159.705 23.5235 160.085 23.4364L159.861 22.4617ZM158.756 22.6774L158.595 21.6904C158.221 21.7513 157.863 21.807 157.52 21.8576L157.666 22.8469L157.813 23.8362C158.166 23.784 158.534 23.7268 158.917 23.6644L158.756 22.6774ZM157.666 22.8469L157.508 21.8595C156.735 21.9832 156.036 22.1802 155.429 22.4661L155.856 23.3707L156.282 24.2753C156.678 24.0888 157.186 23.9365 157.824 23.8343L157.666 22.8469ZM155.856 23.3707L155.422 22.4696C154.804 22.7671 154.281 23.1784 153.901 23.7217L154.72 24.2951L155.539 24.8685C155.691 24.6518 155.926 24.4468 156.289 24.2719L155.856 23.3707ZM154.72 24.2951L153.898 23.7263C153.51 24.2862 153.336 24.9332 153.336 25.6201H154.336H155.336C155.336 25.2799 155.418 25.0436 155.543 24.864L154.72 24.2951ZM154.336 25.6201H153.336C153.336 26.6684 153.726 27.583 154.568 28.2097L155.165 27.4073L155.762 26.6049C155.5 26.4099 155.336 26.133 155.336 25.6201H154.336ZM155.165 27.4073L154.575 28.2149C155.346 28.7775 156.277 29.0236 157.298 29.0236V28.0236V27.0236C156.6 27.0236 156.11 26.8588 155.755 26.5997L155.165 27.4073ZM195.677 8.8883L194.731 8.56493L186.644 32.2298L187.59 32.5532L188.536 32.8766L196.624 9.21167L195.677 8.8883ZM187.59 32.5532V31.5532H178.997V32.5532V33.5532H187.59V32.5532ZM178.997 32.5532L179.943 32.2304L171.871 8.56548L170.925 8.8883L169.979 9.21112L178.05 32.876L178.997 32.5532ZM170.925 8.8883V9.8883H178.828V8.8883V7.8883H170.925V8.8883ZM178.828 8.8883L177.862 9.14574L182.204 25.4462L183.171 25.1887L184.137 24.9313L179.794 8.63086L178.828 8.8883ZM183.171 25.1887V26.1887H183.416V25.1887V24.1887H183.171V25.1887ZM183.416 25.1887L184.382 25.447L188.74 9.14659L187.774 8.8883L186.808 8.63001L182.45 24.9304L183.416 25.1887ZM187.774 8.8883V9.8883H195.677V8.8883V7.8883H187.774V8.8883ZM208.813 33V32C206.48 32 204.524 31.5389 202.908 30.6583L202.429 31.5364L201.951 32.4144C203.916 33.4853 206.215 34 208.813 34V33ZM202.429 31.5364L202.914 30.6616C201.306 29.7707 200.073 28.511 199.201 26.8627L198.317 27.3303L197.433 27.7979C198.484 29.7855 199.993 31.3299 201.945 32.4111L202.429 31.5364ZM198.317 27.3303L199.204 26.8687C198.341 25.2111 197.89 23.204 197.89 20.8132H196.89H195.89C195.89 23.4553 196.389 25.7929 197.43 27.7919L198.317 27.3303ZM196.89 20.8132H197.89C197.89 18.5012 198.344 16.53 199.217 14.8695L198.332 14.4039L197.447 13.9384C196.397 15.9344 195.89 18.2361 195.89 20.8132H196.89ZM198.332 14.4039L199.218 14.8674C200.095 13.1916 201.319 11.9049 202.901 10.9854L202.399 10.1208L201.896 9.25629C199.979 10.3705 198.493 11.9392 197.446 13.9405L198.332 14.4039ZM202.399 10.1208L202.905 10.9832C204.477 10.0605 206.357 9.58016 208.583 9.58016V8.58016V7.58016C206.062 7.58016 203.82 8.12693 201.892 9.2585L202.399 10.1208ZM208.583 8.58016V9.58016C210.156 9.58016 211.569 9.82544 212.834 10.3018L213.187 9.36591L213.539 8.43004C212.021 7.85872 210.366 7.58016 208.583 7.58016V8.58016ZM213.187 9.36591L212.834 10.3018C214.094 10.7762 215.173 11.4736 216.081 12.3945L216.793 11.6923L217.505 10.9902C216.387 9.85688 215.061 9.00325 213.539 8.43004L213.187 9.36591ZM216.793 11.6923L216.081 12.3945C216.983 13.31 217.7 14.4538 218.219 15.847L219.156 15.4978L220.093 15.1486C219.487 13.5221 218.628 12.129 217.505 10.9902L216.793 11.6923ZM219.156 15.4978L218.22 15.8491C218.732 17.2154 219 18.8131 219 20.6591H220H221C221 18.6226 220.705 16.7795 220.092 15.1465L219.156 15.4978ZM220 20.6591H219V22.5388H220H221V20.6591H220ZM220 22.5388V21.5388H199.514V22.5388V23.5388H220V22.5388ZM199.514 22.5388H200.514V18.1632H199.514H198.514V22.5388H199.514ZM199.514 18.1632V19.1632H213.018V18.1632V17.1632H199.514V18.1632ZM213.018 18.1632L214.018 18.1504C214.006 17.1937 213.777 16.3063 213.312 15.5149L212.45 16.0217L211.588 16.5284C211.859 16.9901 212.01 17.5304 212.018 18.176L213.018 18.1632ZM212.45 16.0217L213.312 15.5149C212.851 14.73 212.21 14.114 211.407 13.6788L210.931 14.558L210.454 15.4372C210.94 15.7005 211.313 16.0603 211.588 16.5284L212.45 16.0217ZM210.931 14.558L211.424 13.688C210.62 13.2322 209.714 13.0188 208.736 13.0188V14.0188V15.0188C209.416 15.0188 209.973 15.1648 210.438 15.428L210.931 14.558ZM208.736 14.0188V13.0188C207.74 13.0188 206.815 13.2461 205.984 13.7206L206.481 14.5888L206.977 15.457C207.477 15.1714 208.055 15.0188 208.736 15.0188V14.0188ZM206.481 14.5888L205.995 13.7149C205.178 14.169 204.522 14.8007 204.043 15.5991L204.9 16.1141L205.757 16.6291C206.055 16.1333 206.453 15.7482 206.967 15.4628L206.481 14.5888ZM204.9 16.1141L204.046 15.5931C203.558 16.3925 203.311 17.2905 203.286 18.2613L204.286 18.2865L205.286 18.3117C205.302 17.6596 205.464 17.1094 205.754 16.6352L204.9 16.1141ZM204.286 18.2865H203.286V22.739H204.286H205.286V18.2865H204.286ZM204.286 22.739H203.286C203.286 23.8369 203.502 24.8473 203.966 25.7419L204.854 25.2812L205.742 24.8205C205.449 24.2565 205.286 23.5722 205.286 22.739H204.286ZM204.854 25.2812L203.969 25.747C204.435 26.6313 205.105 27.3309 205.966 27.8271L206.465 26.9605L206.964 26.0939C206.435 25.7889 206.03 25.3691 205.739 24.8153L204.854 25.2812ZM206.465 26.9605L205.966 27.8271C206.841 28.3309 207.849 28.5614 208.951 28.5614V27.5614V26.5614C208.13 26.5614 207.481 26.3913 206.964 26.0939L206.465 26.9605ZM208.951 27.5614V28.5614C209.709 28.5614 210.423 28.456 211.085 28.2306L210.762 27.2841L210.439 26.3376C210.016 26.4818 209.524 26.5614 208.951 26.5614V27.5614ZM210.762 27.2841L211.085 28.2306C211.748 28.0043 212.338 27.6636 212.837 27.2017L212.158 26.4675L211.48 25.7333C211.202 25.9904 210.86 26.194 210.439 26.3376L210.762 27.2841ZM212.158 26.4675L212.837 27.2017C213.348 26.7296 213.725 26.1532 213.971 25.4904L213.033 25.1425L212.096 24.7946C211.953 25.1795 211.747 25.4864 211.48 25.7333L212.158 26.4675ZM213.033 25.1425L213.004 26.1421L219.894 26.3424L219.923 25.3428L219.952 24.3432L213.062 24.1429L213.033 25.1425ZM219.923 25.3428L218.94 25.1612C218.684 26.5495 218.126 27.7383 217.272 28.7494L218.036 29.3948L218.8 30.0402C219.889 28.7505 220.59 27.238 220.907 25.5244L219.923 25.3428ZM218.036 29.3948L217.271 28.7501C216.427 29.7507 215.304 30.5499 213.869 31.1339L214.245 32.0602L214.622 32.9865C216.317 32.2968 217.721 31.3191 218.8 30.0395L218.036 29.3948ZM214.245 32.0602L213.874 31.1318C212.45 31.7019 210.769 32 208.813 32V33V34C210.97 34 212.911 33.6716 214.617 32.9886L214.245 32.0602Z" fill="black" mask="url(#path-1-outside-1_1_391)"/>
<defs>
<linearGradient id="paint0_linear_1_391" x1="33.5063" y1="27.1087" x2="40.4816" y2="-15.7846" gradientUnits="userSpaceOnUse">
<stop stop-color="#F7E93F"/>
<stop offset="0.5112" stop-color="#FB09B4"/>
<stop offset="1" stop-color="#9100F8"/>
</linearGradient>
<linearGradient id="paint1_linear_1_391" x1="33.5063" y1="27.1087" x2="40.4816" y2="-15.7846" gradientUnits="userSpaceOnUse">
<stop stop-color="#F7E93F"/>
<stop offset="0.5112" stop-color="#FB09B4"/>
<stop offset="1" stop-color="#9100F8"/>
</linearGradient>
<linearGradient id="paint2_linear_1_391" x1="33.5063" y1="27.1087" x2="40.4816" y2="-15.7846" gradientUnits="userSpaceOnUse">
<stop stop-color="#F7E93F"/>
<stop offset="0.5112" stop-color="#FB09B4"/>
<stop offset="1" stop-color="#9100F8"/>
</linearGradient>
<linearGradient id="paint3_linear_1_391" x1="33.5063" y1="27.1087" x2="40.4816" y2="-15.7846" gradientUnits="userSpaceOnUse">
<stop stop-color="#F7E93F"/>
<stop offset="0.5112" stop-color="#FB09B4"/>
<stop offset="1" stop-color="#9100F8"/>
</linearGradient>
</defs>
</svg>
